<svg width="538" height="104" viewBox="0 0 538 104" fill="none" xmlns="http://www.w3.org/2000/svg">
  <path d="M107.863 1.52798V67.192L64.6631 1.52798H17.7191L0.151123 19.96H53.8631L108.727 102.328H128.887V15.64H129.031L142.423 1.52798H107.863ZM41.4791 102.328H62.3591V58.984L41.4791 27.592V102.328Z" fill="#213C61"/>
  <path d="M216.931 0.664001C185.827 0.664001 162.355 22.696 162.355 51.784C162.355 81.304 185.827 103.48 216.931 103.48C248.035 103.48 271.507 81.304 271.507 51.784C271.507 22.696 248.035 0.664001 216.931 0.664001V0.664001ZM217.219 83.752C200.659 83.752 185.107 69.496 185.107 51.928C185.107 34.216 200.515 20.392 217.363 20.392C233.923 20.392 249.043 34.216 249.043 51.928C249.043 69.784 233.923 83.752 217.363 83.752H217.219Z" fill="#2F5975"/>
  <path d="M285.899 1.384V20.392H314.843V102.184H337.451V20.392H366.683V1.384H285.899Z" fill="#3C778A"/>
  <path d="M411.371 102.328V1.52798H388.763V102.328H411.371Z" fill="#4A949E"/>
  <path d="M491.625 83.752C475.065 83.752 459.513 69.496 459.513 51.928C459.513 34.216 474.921 20.392 491.769 20.392C501.705 20.392 511.065 25.288 516.969 33.064L537.849 23.704C528.345 9.59199 511.497 0.519989 491.481 0.519989C460.377 0.519989 436.905 22.552 436.905 51.64C436.905 81.16 460.377 103.336 491.481 103.336C511.353 103.336 528.057 94.264 537.561 80.152L516.825 70.936C510.921 78.712 501.561 83.608 491.769 83.608L491.625 83.752Z" fill="#57B1B2"/>
</svg>
