<?xml version="1.0" standalone="no"?>
<!DOCTYPE svg PUBLIC "-//W3C//DTD SVG 20010904//EN"
 "http://www.w3.org/TR/2001/REC-SVG-20010904/DTD/svg10.dtd">
<svg version="1.0" xmlns="http://www.w3.org/2000/svg"
 width="700.000000pt" height="700.000000pt" viewBox="0 0 700.000000 700.000000"
 preserveAspectRatio="xMidYMid meet">
<metadata>
Created by potrace 1.14, written by Peter Selinger 2001-2017
</metadata>
<g transform="translate(0.000000,700.000000) scale(0.100000,-0.100000)"
fill="#000000" stroke="none">
<path d="M1158 5926 c-12 -6 -32 -25 -43 -42 l-21 -31 1 -1959 c0 -1871 1
-1961 18 -1987 10 -16 30 -33 45 -39 18 -7 187 -11 499 -11 l471 0 7 -45 c4
-24 8 -54 11 -65 13 -65 18 -95 38 -212 9 -49 18 -101 21 -115 10 -51 47 -256
51 -285 3 -16 9 -52 14 -80 5 -27 12 -62 14 -77 14 -84 77 -116 186 -93 14 3
48 10 75 15 28 5 64 12 80 15 17 3 39 7 50 9 11 2 47 8 80 14 33 6 76 14 95
17 38 6 122 22 156 29 12 2 39 7 60 10 22 4 190 34 374 67 184 33 349 63 365
65 17 3 50 9 75 14 25 5 59 11 75 14 17 3 71 12 120 21 50 9 99 18 110 20 11
1 31 6 45 9 14 3 41 8 60 10 19 3 109 19 200 36 91 17 181 33 200 36 50 8 68
11 135 23 33 6 74 14 90 16 17 3 53 10 80 15 28 5 68 12 90 16 64 9 128 24
158 36 26 10 74 73 251 332 38 55 72 104 77 110 5 6 42 58 82 116 39 58 86
125 102 148 119 170 225 323 291 419 l77 112 -6 68 c-4 37 -9 79 -12 93 -3 14
-15 77 -26 140 -11 63 -22 126 -25 140 -2 14 -16 90 -30 170 -14 79 -27 147
-29 150 -2 3 -6 30 -10 60 -4 30 -9 58 -11 61 -2 3 -6 25 -9 49 -3 23 -7 45
-9 49 -2 3 -7 29 -10 56 -4 28 -9 57 -11 65 -2 8 -6 33 -10 55 -3 22 -7 47
-10 55 -2 8 -6 33 -10 55 -3 22 -7 47 -10 55 -2 8 -6 33 -10 54 -3 21 -7 48
-10 60 -3 12 -7 32 -9 46 -12 72 -19 114 -37 205 -10 55 -21 114 -23 130 -3
17 -9 57 -15 90 -6 33 -14 75 -17 94 -3 18 -8 43 -10 55 -2 11 -11 59 -19 106
-8 47 -17 96 -20 110 -5 25 -8 42 -25 140 -17 97 -20 114 -25 140 -3 14 -9 50
-15 80 -5 30 -12 69 -15 85 -3 17 -10 59 -16 95 -7 36 -19 76 -27 89 -20 30
-71 52 -108 46 -40 -7 -189 -34 -247 -45 -26 -6 -54 -10 -61 -10 -10 0 -12 39
-12 169 0 142 -3 173 -17 195 -38 57 94 53 -2024 53 -1410 0 -1959 -3 -1975
-11z"/>
</g>
</svg>
