<?xml version="1.0" standalone="no"?>
<!DOCTYPE svg PUBLIC "-//W3C//DTD SVG 20010904//EN"
 "http://www.w3.org/TR/2001/REC-SVG-20010904/DTD/svg10.dtd">
<svg version="1.0" xmlns="http://www.w3.org/2000/svg"
 width="1024.000000pt" height="1024.000000pt" viewBox="0 0 1024.000000 1024.000000"
 preserveAspectRatio="xMidYMid meet">
<metadata>
Created by potrace 1.14, written by Peter Selinger 2001-2017
</metadata>
<g transform="translate(0.000000,1024.000000) scale(0.100000,-0.100000)"
fill="#000000" stroke="none">
<path d="M1843 7598 c-170 -178 -389 -406 -485 -508 l-176 -185 1486 -3 1487
-2 1520 -2285 1520 -2284 563 -1 562 0 1 2403 0 2402 370 388 c203 213 369
390 369 392 0 3 -430 5 -955 5 l-955 0 -2 -1817 -3 -1817 -1195 1817 -1195
1817 -1301 0 -1302 0 -309 -322z"/>
<path d="M3470 4397 l0 -2067 580 0 580 0 0 1199 0 1198 -571 859 c-314 472
-575 863 -580 869 -5 5 -9 -823 -9 -2058z"/>
</g>
</svg>
